<svg height="464pt" viewBox="-55 0 463 464" width="464pt" xmlns="http://www.w3.org/2000/svg"><path d="m229.738281 118.246094-10.277343-12.253906c6.722656-5.898438 15.589843-8.742188 24.488281-7.855469 5.097656.679687 10.246093-.820313 14.183593-4.125 3.941407-3.308594 6.304688-8.121094 6.519532-13.257813 1.816406-18.429687 18.023437-32.03125 36.488281-30.617187 5.089844.585937 10.207031-.898438 14.191406-4.121094l10.289063 12.25c-6.757813 5.835937-15.597656 8.679687-24.488282 7.871094-5.105468-.714844-10.269531.785156-14.191406 4.128906-3.949218 3.300781-6.324218 8.117187-6.539062 13.261719-.820313 8.875-5.140625 17.0625-12 22.753906-6.757813 5.816406-15.585938 8.652344-24.46875 7.855469-5.105469-.742188-10.277344.757812-14.195313 4.109375zm0 0" fill="#009986"/><path d="m259.066406 129.601562c-6.714844-.171874-13.238281-2.257812-18.804687-6.015624-4.0625-3.15625-9.269531-4.460938-14.335938-3.585938l-2.785156-15.753906c8.765625-1.59375 17.808594.363281 25.136719 5.433594 4.074218 3.140624 9.28125 4.421874 14.347656 3.527343s9.519531-3.878906 12.273438-8.222656c10.785156-15.054687 31.621093-18.726563 46.90625-8.273437 4.074218 3.144531 9.285156 4.425781 14.351562 3.527343l2.785156 15.761719c-8.769531 1.597656-17.816406-.359375-25.144531-5.433594-4.078125-3.140625-9.289063-4.421875-14.355469-3.527344-5.070312.894532-9.527344 3.878907-12.285156 8.226563-5.152344 7.273437-12.980469 12.203125-21.769531 13.703125-2.082031.394531-4.199219.605469-6.320313.632812zm0 0" fill="#009986"/><path d="m352.5 288v144c0 17.671875-14.328125 32-32 32h-288c-17.671875 0-32-14.328125-32-32v-144c-.027344-88.375 71.625-160.027344 160-160h32c88.375-.027344 160.027344 71.625 160 160zm0 0" fill="#00ccb3"/><path d="m280.5 304c0 57.4375-46.5625 104-104 104s-104-46.5625-104-104 46.5625-104 104-104 104 46.5625 104 104zm0 0" fill="#ffd422"/><path d="m256.5 16-40 80h-80l-40-80c20 0 20-16 40-16s20 16 40.078125 16c20.082031 0 20-16 39.921875-16s20 16 40 16zm0 0" fill="#00ccb3"/><path d="m232.5 112v.160156c-.121094 8.757813-7.238281 15.804688-16 15.839844h-80c-8.808594-.066406-15.933594-7.191406-16-16 .027344-8.824219 7.175781-15.972656 16-16h80c8.808594.066406 15.933594 7.191406 16 16zm0 0" fill="#00b39d"/><g fill="#ff5023"><path d="m224.5 336c0 8.835938-7.164062 16-16 16s-16-7.164062-16-16 7.164062-16 16-16 16 7.164062 16 16zm0 0"/><path d="m160.5 272c0 8.835938-7.164062 16-16 16s-16-7.164062-16-16 7.164062-16 16-16 16 7.164062 16 16zm0 0"/><path d="m122.84375 346.339844 96-96 11.316406 11.3125-96.003906 96.003906zm0 0"/></g></svg>