<svg height="286" viewBox="0 0 286 286" width="286" xmlns="http://www.w3.org/2000/svg"><path d="m284 330.69691-89.044693 89.046876c-12.343801 12.341619-32.355291 12.341619-44.699093 0-12.341619-12.343801-12.341619-32.355291 0-44.699092l89.046876-89.044694-89.046876-89.044693c-12.341619-12.343801-12.341619-32.355291 0-44.699093 12.343802-12.341619 32.355292-12.341619 44.699093 0l89.044693 89.046876 89.044694-89.046876c12.343801-12.341619 32.355291-12.341619 44.699092 0 12.341619 12.343802 12.341619 32.355292 0 44.699093l-89.046876 89.044693 89.046876 89.044694c12.341619 12.343801 12.341619 32.355291 0 44.699092-12.343801 12.341619-32.355291 12.341619-44.699092 0z" fill="#b3bcd0" transform="translate(-141 -143)"/></svg>